<?xml version="1.0" encoding="UTF-8" standalone="no"?>
<!-- Created with Inkscape (http://www.inkscape.org/) -->

<svg
   xmlns:dc="http://purl.org/dc/elements/1.1/"
   xmlns:cc="http://creativecommons.org/ns#"
   xmlns:rdf="http://www.w3.org/1999/02/22-rdf-syntax-ns#"
   xmlns:svg="http://www.w3.org/2000/svg"
   xmlns="http://www.w3.org/2000/svg"
   xmlns:sodipodi="http://sodipodi.sourceforge.net/DTD/sodipodi-0.dtd"
   xmlns:inkscape="http://www.inkscape.org/namespaces/inkscape"
   width="96"
   height="91.72599"
   id="svg3780"
   version="1.1"
   inkscape:version="0.48.4 r9939"
   sodipodi:docname="logo-cadoles-00.svg">
  <defs
     id="defs3782" />
  <sodipodi:namedview
     id="base"
     pagecolor="#ffffff"
     bordercolor="#666666"
     borderopacity="1.0"
     inkscape:pageopacity="0.0"
     inkscape:pageshadow="2"
     inkscape:zoom="5.6581564"
     inkscape:cx="15.392206"
     inkscape:cy="45.862995"
     inkscape:document-units="px"
     inkscape:current-layer="layer1"
     showgrid="false"
     fit-margin-top="0"
     fit-margin-left="0"
     fit-margin-right="0"
     fit-margin-bottom="0"
     inkscape:window-width="1920"
     inkscape:window-height="1030"
     inkscape:window-x="0"
     inkscape:window-y="0"
     inkscape:window-maximized="1" />
  <metadata
     id="metadata3785">
    <rdf:RDF>
      <cc:Work
         rdf:about="">
        <dc:format>image/svg+xml</dc:format>
        <dc:type
           rdf:resource="http://purl.org/dc/dcmitype/StillImage" />
        <dc:title></dc:title>
      </cc:Work>
    </rdf:RDF>
  </metadata>
  <g
     inkscape:label="Calque 1"
     inkscape:groupmode="layer"
     id="layer1"
     transform="translate(-327,-486.49919)">
    <path
       style="fill:#efefef;fill-opacity:1;stroke:none;display:inline;enable-background:new"
       d="m 375,486.49919 c -29.99999,0 -48,29.99998 -48,54 l 6,0 0,24 c 12,17.99995 72.72357,18.60023 84,0 l 0,-24 6,0 c 0,-9.72888 -2.95274,-20.44728 -8.46875,-29.75 l -6.78125,6.875 0,16.15625 3.65625,5.03125 -5.4375,5.25 -5.53125,-5.25 3.90625,-4.875 -0.15625,-17.5 8.78125,-8.1875 c -2.20986,-3.33656 -4.77737,-6.44886 -7.65625,-9.21875 l -11.0625,11.75 0,16.1875 3.65625,5.03125 -5.46875,5.25 -5.53125,-5.25 3.9375,-4.90625 -0.1875,-17.5 12.1875,-12.78125 c -2.94221,-2.47374 -6.17261,-4.61478 -9.6875,-6.28125 l -12.6875,13.46875 0,16.15625 3.6875,5.0625 -5.46875,5.25 -5.53125,-5.25 3.9375,-4.90625 -0.1875,-17.5 13.34375,-13.5 c -4.65991,-1.798 -9.74483,-2.8125 -15.25,-2.8125 z m 15.25,2.8125 2.90625,1.21875 z m 12.59375,7.5 2.46875,2.21875 z m 10.125,11.4375 1.5625,2.5 z m -48.32725,38.88135 20.08566,-0.25254 0.12627,23.65065 -20.21193,0.23087 z"
       id="path3773"
       inkscape:connector-curvature="0"
       sodipodi:nodetypes="scccccccccccccccccccccccccccccccccscccccccccccccc" />
  </g>
</svg>
